<?xml version="1.0" standalone="no"?>
<!DOCTYPE svg PUBLIC "-//W3C//DTD SVG 20010904//EN"
 "http://www.w3.org/TR/2001/REC-SVG-20010904/DTD/svg10.dtd">
<svg version="1.0" xmlns="http://www.w3.org/2000/svg"
 width="207.000000pt" height="300.000000pt" viewBox="0 0 207.000000 300.000000"
 preserveAspectRatio="xMidYMid meet">
<metadata>
Created by potrace 1.10, written by Peter Selinger 2001-2011
</metadata>
<g transform="translate(0.000000,300.000000) scale(0.100000,-0.100000)"
fill="#000000" stroke="none">
<path d="M430 2722 c-288 -183 -406 -263 -408 -277 -2 -15 19 -37 83 -85 47
-35 85 -66 85 -67 0 -1 -9 -17 -20 -35 -13 -22 -30 -98 -50 -213 -54 -324 -73
-499 -74 -685 -1 -165 1 -178 24 -235 31 -74 65 -100 290 -229 304 -173 458
-249 490 -243 33 7 392 198 560 299 131 78 181 127 201 195 24 83 17 383 -14
610 -46 331 -74 474 -97 506 -12 16 -20 30 -18 31 62 45 168 131 171 139 6 16
44 -28 67 -79 29 -60 41 -222 30 -399 -13 -206 -12 -456 2 -600 19 -196 16
-282 -11 -337 -26 -53 -90 -117 -148 -146 -21 -11 -78 -32 -128 -47 -119 -36
-170 -63 -240 -127 -61 -56 -115 -149 -115 -200 l0 -27 43 19 c40 17 117 36
117 29 0 -2 -9 -33 -20 -67 -11 -35 -23 -101 -26 -146 -7 -90 3 -276 15 -276
4 0 13 17 19 38 14 45 97 186 153 259 62 80 211 217 345 318 157 118 210 169
242 230 26 47 27 58 26 185 0 128 -3 142 -42 276 -22 78 -46 170 -53 205 -6
35 -14 210 -18 389 -9 359 -14 393 -74 471 -45 59 -136 107 -218 116 -62 6
-73 12 -422 235 -196 125 -358 228 -360 228 -1 0 -184 -116 -407 -258z m700
25 c129 -82 237 -152 240 -155 3 -2 -1 -7 -8 -9 -40 -14 -65 -51 -72 -103 -6
-46 -4 -56 18 -81 28 -34 20 -36 -63 -15 -72 19 -77 23 -65 46 18 34 12 125
-10 153 -50 64 -275 106 -440 83 -135 -18 -219 -56 -240 -106 -12 -30 -10
-108 4 -142 6 -14 -8 -19 -91 -38 -54 -12 -120 -28 -147 -35 l-49 -14 -58 45
c-32 24 -61 50 -65 56 -8 12 27 44 86 77 l37 21 -5 -48 c-3 -41 0 -53 20 -76
32 -38 74 -38 105 -2 16 19 21 34 17 51 -3 12 -1 26 5 29 20 13 12 44 -19 75
l-30 30 27 19 c43 30 395 254 408 258 7 3 9 -17 7 -63 -5 -84 11 -104 85 -107
65 -3 83 17 83 91 0 70 -25 103 -77 103 -36 0 -43 13 -16 29 23 12 31 8 313
-172z m-295 103 c26 22 46 -5 38 -52 -4 -28 -2 -43 7 -48 9 -6 8 -11 -8 -19
-30 -16 -43 5 -32 52 5 23 4 39 -2 43 -15 10 -28 -16 -28 -58 0 -32 -3 -38
-21 -38 -15 0 -19 5 -15 18 18 64 18 82 -1 82 -17 1 -17 1 1 15 14 11 23 12
33 4 9 -9 17 -8 28 1z m166 -234 c36 -8 83 -23 105 -33 l39 -18 3 -71 3 -71
-56 19 c-31 10 -102 26 -157 35 -93 15 -107 15 -201 0 -56 -9 -128 -25 -159
-35 l-58 -19 0 68 c0 66 1 69 31 84 98 51 311 70 450 41z m-677 -92 c7 -19 -4
-46 -18 -41 -6 2 -10 14 -9 26 3 24 -12 28 -21 5 -9 -24 -7 -72 3 -79 5 -3 17
2 26 11 23 23 32 8 10 -16 -45 -49 -91 -4 -72 71 11 42 68 58 81 23z m1072 12
c15 -12 17 -17 7 -27 -10 -10 -16 -9 -28 7 -13 17 -14 17 -15 2 0 -10 9 -23
20 -30 23 -15 26 -50 6 -68 -23 -18 -61 -8 -64 18 -4 25 15 30 24 7 7 -18 24
-20 24 -2 0 7 -9 18 -20 25 -25 15 -26 57 -2 71 23 14 25 13 48 -3z m102 -23
c26 -15 60 -35 75 -46 l28 -19 -23 -25 c-13 -14 -44 -40 -70 -59 l-47 -35 -51
17 -51 17 35 29 c26 21 36 38 36 57 0 34 11 91 17 91 2 0 25 -12 51 -27z m184
-24 c69 -17 130 -69 168 -144 l35 -68 7 -326 c3 -179 12 -359 18 -400 7 -41
32 -145 57 -230 40 -138 45 -168 46 -261 1 -96 -1 -110 -27 -168 -33 -70 -50
-87 -261 -247 -172 -131 -308 -267 -384 -386 -34 -52 -67 -109 -73 -127 -7
-17 -16 -32 -20 -32 -12 0 -10 184 3 259 5 35 19 89 29 120 11 30 20 57 20 58
0 10 -69 0 -115 -16 -64 -23 -67 -18 -30 56 50 100 153 172 324 227 109 35
153 58 206 108 88 81 109 166 90 363 -7 71 -16 195 -20 275 -6 121 -5 142 6
133 8 -6 29 -14 47 -18 27 -6 32 -4 32 12 0 11 -5 24 -12 31 -17 17 -48 15
-48 -4 0 -8 -5 -12 -10 -9 -6 4 -8 10 -5 15 3 4 0 10 -5 12 -7 2 -7 45 0 138
20 268 10 442 -31 522 -11 21 -41 53 -66 71 -80 57 -82 58 -48 51 17 -3 46
-10 67 -15z m-672 -100 c114 -14 418 -85 448 -105 35 -23 47 -61 81 -268 69
-412 89 -734 55 -858 -21 -74 -61 -112 -215 -203 -141 -84 -469 -260 -515
-277 -32 -11 -40 -9 -112 26 -110 55 -369 197 -495 274 -167 101 -185 130
-194 314 -6 122 7 284 43 538 49 349 70 430 116 459 22 14 345 89 433 101 90
11 260 11 355 -1z m815 -699 c3 -5 -3 -10 -14 -10 -12 0 -21 5 -21 10 0 6 6
10 14 10 8 0 18 -4 21 -10z"/>
<path d="M820 2603 c0 -10 -3 -35 -6 -55 -6 -33 -4 -38 12 -38 16 0 19 9 21
55 1 41 -2 55 -13 55 -8 0 -14 -8 -14 -17z"/>
<path d="M730 2573 c-35 -7 -50 -22 -50 -49 0 -22 4 -24 36 -22 34 3 37 6 40
41 2 20 2 36 1 36 -1 -1 -13 -4 -27 -6z m0 -25 c0 -19 -18 -43 -25 -36 -9 9 4
48 16 48 5 0 9 -6 9 -12z"/>
<path d="M906 2565 c-33 -34 -15 -58 44 -61 19 -1 30 0 23 3 -8 3 -9 13 -3 34
7 22 5 29 -5 29 -7 0 -20 3 -28 6 -8 3 -22 -2 -31 -11z m44 -9 c0 -2 -3 -11
-6 -20 -9 -23 -24 -20 -24 4 0 11 7 20 15 20 8 0 15 -2 15 -4z"/>
<path d="M603 2545 c-18 -8 -33 -19 -33 -26 0 -7 9 -5 22 7 l22 19 -20 -30
c-35 -51 -36 -54 -14 -48 11 3 20 11 20 19 0 7 5 16 12 20 8 5 9 2 5 -9 -4
-10 -2 -17 4 -17 7 0 9 9 6 22 -4 12 -1 28 5 35 16 20 7 23 -29 8z"/>
<path d="M1025 2524 c2 -20 5 -37 7 -39 2 -1 21 -5 43 -8 22 -4 35 -4 28 -1
-8 4 -9 13 -3 29 8 22 5 35 -11 35 -4 0 -10 -11 -13 -25 -4 -14 -11 -25 -17
-25 -7 0 -9 10 -5 27 5 17 3 29 -6 34 -22 15 -26 10 -23 -27z"/>
<path d="M1785 1940 c-4 -6 -5 -20 -4 -33 1 -12 -1 -30 -6 -40 -9 -21 10 -47
37 -47 31 0 34 29 4 57 -30 28 -30 46 1 51 27 4 52 -25 29 -34 -9 -3 -13 -10
-10 -15 18 -30 41 18 24 51 -11 21 -64 28 -75 10z m40 -90 c3 -5 -3 -10 -14
-10 -11 0 -23 5 -26 10 -3 6 3 10 14 10 11 0 23 -4 26 -10z"/>
<path d="M1770 1801 c0 -6 8 -10 18 -9 9 0 32 -3 50 -7 19 -5 32 -4 32 2 0 6
-17 13 -37 17 -52 8 -63 8 -63 -3z"/>
<path d="M1773 1764 c-3 -8 0 -21 7 -27 10 -10 12 -8 7 6 -9 24 1 21 23 -5 18
-22 19 -22 26 -4 5 13 1 23 -11 32 -25 18 -44 18 -52 -2z"/>
<path d="M1780 1636 c0 -6 14 -11 30 -12 17 -1 30 4 30 10 0 6 -14 11 -30 12
-17 1 -30 -4 -30 -10z"/>
<path d="M1780 1583 c0 -24 4 -28 30 -29 17 -1 30 3 30 7 0 5 -9 9 -19 9 -11
0 -23 5 -26 10 -4 6 5 10 19 10 36 0 33 15 -4 18 -27 2 -30 -1 -30 -25z"/>
<path d="M1775 1531 c-3 -5 -1 -12 5 -16 5 -3 10 -2 10 4 0 7 8 7 26 1 34 -13
54 -13 54 3 0 14 -86 22 -95 8z"/>
<path d="M1780 1446 c0 -11 10 -16 33 -16 l32 -1 -28 -15 c-33 -18 -27 -34 13
-34 16 0 32 -4 35 -10 10 -17 23 -11 18 8 -3 14 -12 17 -36 14 l-32 -4 33 21
c39 25 41 38 5 37 -16 0 -38 3 -50 7 -18 6 -23 5 -23 -7z"/>
<path d="M1796 1362 c-3 -5 -3 -17 0 -28 6 -24 64 -33 64 -10 0 30 -50 60 -64
38z m44 -22 c0 -5 -6 -10 -14 -10 -8 0 -18 5 -21 10 -3 6 3 10 14 10 12 0 21
-4 21 -10z"/>
<path d="M1789 1289 c-15 -9 -16 -9 35 -13 11 0 21 -7 24 -14 3 -9 -3 -13 -18
-10 -13 2 -25 -2 -27 -8 -2 -6 9 -11 27 -11 22 0 30 5 30 18 0 9 6 19 13 22 6
2 9 7 6 11 -11 11 -75 15 -90 5z"/>
<path d="M1876 1242 c-3 -6 -1 -14 5 -17 15 -10 25 3 12 16 -7 7 -13 7 -17 1z"/>
<path d="M1805 1210 c-9 -14 32 -50 50 -44 18 7 19 26 3 42 -14 14 -44 16 -53
2z m43 -19 c3 -8 -1 -12 -9 -9 -7 2 -15 10 -17 17 -3 8 1 12 9 9 7 -2 15 -10
17 -17z"/>
<path d="M1810 1150 c0 -3 12 -11 28 -17 l27 -11 -27 -1 c-38 -1 -36 -15 2
-18 26 -2 30 1 30 25 0 23 -4 27 -30 28 -17 1 -30 -2 -30 -6z"/>
<path d="M1809 1088 c-6 -20 -3 -48 5 -48 6 0 21 -3 34 -6 17 -5 22 -2 22 13
0 24 -19 43 -42 43 -10 0 -18 -1 -19 -2z m42 -24 c12 -14 11 -16 -5 -13 -11 2
-21 10 -24 17 -5 17 13 15 29 -4z"/>
<path d="M1800 1015 c0 -9 4 -13 10 -10 5 3 23 -1 39 -10 37 -18 41 -19 41 -1
0 7 -12 16 -27 19 -16 3 -36 9 -45 12 -13 5 -18 2 -18 -10z"/>
<path d="M1765 927 c-8 -13 -13 -32 -9 -41 7 -18 29 -21 39 -6 4 6 11 7 17 4
7 -5 5 -12 -7 -20 -10 -8 -16 -17 -12 -20 11 -11 37 17 37 38 0 17 -5 20 -30
15 -22 -5 -30 -3 -30 8 0 8 7 15 15 15 17 0 20 16 5 25 -5 3 -16 -5 -25 -18z"/>
<path d="M1832 934 c-7 -12 -6 -21 3 -31 15 -15 29 -18 21 -4 -4 5 0 11 6 14
10 3 9 9 -3 22 -16 16 -17 16 -27 -1z"/>
<path d="M1725 880 c-6 -10 31 -49 48 -50 5 0 5 -4 2 -10 -3 -5 -1 -10 4 -10
18 0 12 15 -18 49 -18 20 -32 28 -36 21z"/>
<path d="M1700 845 c0 -8 -7 -15 -16 -15 -13 0 -15 -7 -11 -36 6 -34 5 -35
-12 -20 -16 14 -18 14 -33 -1 -15 -14 -15 -17 3 -36 10 -12 19 -24 19 -29 0
-17 -18 -7 -35 18 -9 14 -19 23 -22 20 -3 -3 2 -17 11 -32 23 -34 12 -44 -14
-13 -15 16 -23 20 -26 12 -3 -7 -12 -13 -20 -13 -19 0 -18 -5 10 -34 30 -33
41 -33 20 -1 -22 33 -8 47 15 16 l18 -24 42 33 c30 24 40 39 35 52 -4 13 -1
16 10 12 9 -3 16 -2 16 4 0 5 -7 12 -15 16 -8 3 -15 12 -15 21 0 21 13 19 28
-5 7 -12 17 -18 22 -15 5 3 0 15 -11 26 -11 11 -17 24 -14 30 5 8 22 -9 51
-50 2 -1 7 0 12 3 5 3 -5 22 -24 41 -36 39 -44 42 -44 20z m-30 -112 c0 -13
-3 -13 -15 -3 -8 7 -15 19 -15 27 0 13 3 13 15 3 8 -7 15 -19 15 -27z"/>
<path d="M1496 665 c-17 -13 -17 -15 -2 -30 9 -9 16 -21 16 -26 0 -13 26 -11
38 4 8 9 8 20 -1 37 -15 29 -27 33 -51 15z m38 -21 c4 -9 4 -19 2 -21 -8 -8
-26 8 -26 23 0 19 16 18 24 -2z"/>
<path d="M1493 583 c-14 -5 -18 -43 -5 -43 4 0 13 4 21 9 16 11 2 40 -16 34z"/>
<path d="M735 2362 c-139 -15 -444 -83 -482 -108 -36 -23 -51 -64 -82 -221
-42 -212 -71 -452 -78 -646 -6 -152 -4 -169 12 -187 12 -13 31 -20 55 -20 31
0 60 15 161 86 325 228 459 325 473 346 14 19 16 70 16 366 0 203 -4 351 -10
361 -12 23 -26 28 -65 23z m49 -28 c3 -9 6 -170 6 -359 0 -312 -2 -345 -17
-363 -10 -11 -141 -106 -291 -211 -237 -166 -279 -191 -311 -191 -31 0 -40 5
-49 25 -33 71 6 502 73 828 26 126 32 142 63 170 15 13 264 85 302 87 2 0 -14
-19 -37 -42 -51 -53 -91 -130 -100 -195 -9 -67 -41 -106 -111 -132 -31 -11
-78 -39 -103 -60 l-46 -40 -7 -153 c-3 -84 -9 -187 -12 -229 l-6 -77 34 -37
c21 -23 40 -35 47 -31 6 4 34 41 61 82 53 78 90 112 143 129 21 7 42 26 64 59
17 27 46 64 65 84 30 31 133 105 160 114 7 3 2 35 -15 93 -14 50 -30 117 -37
150 -18 99 -19 103 -36 109 -8 3 -39 -2 -69 -12 l-53 -18 9 24 c24 63 72 127
111 148 24 12 29 12 44 -3 15 -15 16 -32 11 -135 -4 -72 -2 -118 3 -118 12 0
13 9 10 140 -1 88 -5 108 -21 125 -19 19 -20 19 -54 1 -44 -24 -78 -69 -115
-149 -16 -34 -37 -67 -48 -74 -19 -11 -19 -10 -11 28 24 106 110 210 189 228
65 15 78 14 91 -11 15 -28 28 -217 15 -221 -5 -2 -2 -16 7 -32 16 -29 16 -27
16 70 1 93 -5 135 -23 193 -6 19 -4 22 17 22 14 0 28 -7 31 -16z m-149 -251
c4 -27 20 -100 36 -163 16 -63 29 -116 29 -117 0 -1 -16 -10 -35 -19 -51 -24
-129 -97 -180 -169 -33 -45 -53 -64 -74 -68 -40 -8 -93 -57 -149 -136 -25 -36
-47 -68 -50 -71 -2 -3 -12 6 -22 20 -18 23 -20 44 -20 249 l0 224 39 37 c38
36 117 80 145 80 8 0 35 26 60 58 48 63 77 86 134 107 68 25 79 21 87 -32z"/>
<path d="M704 2115 c-4 -9 -4 -19 0 -22 3 -4 6 -1 6 6 0 7 5 9 10 6 6 -3 10
-2 10 4 0 18 -20 23 -26 6z"/>
<path d="M552 2084 c-7 -8 -17 -12 -23 -9 -17 11 -9 -6 16 -33 26 -28 28 -47
4 -47 -8 0 -14 8 -14 17 0 10 -5 18 -10 19 -6 0 -17 5 -26 10 -19 10 -59 -27
-59 -54 0 -9 -6 -17 -14 -17 -27 0 -24 -61 10 -207 8 -34 14 -78 14 -98 0 -19
4 -35 8 -35 13 0 43 58 34 64 -14 8 -21 -4 -15 -22 4 -15 3 -15 -6 -2 -15 22
-14 25 14 38 33 15 38 15 30 0 -4 -7 12 7 36 32 23 25 46 44 51 42 4 -1 6 10
4 24 -3 15 2 40 10 56 9 17 13 32 10 35 -3 3 -1 14 5 25 9 16 6 25 -11 43 -16
17 -18 24 -8 28 11 4 10 7 -1 18 -8 8 -11 9 -7 2 3 -6 1 -15 -5 -18 -7 -5 -3
-15 11 -30 15 -16 18 -25 10 -30 -6 -4 -9 -17 -6 -29 6 -25 -8 -54 -18 -37 -4
6 -5 15 -2 19 7 13 -9 33 -29 36 -11 2 -21 8 -23 14 -4 12 16 11 36 -2 8 -5
18 -4 24 2 6 6 6 12 -3 17 -8 6 -10 4 -4 -5 5 -8 3 -11 -6 -8 -8 3 -14 19 -14
39 0 19 -6 43 -12 54 -7 14 -8 26 -2 38 12 21 31 23 23 2 -5 -11 -2 -13 9 -9
20 7 10 34 -12 34 -9 -1 -22 -7 -29 -16z m-67 -64 c-3 -5 -1 -10 4 -10 6 0 11
5 11 11 0 6 14 -3 30 -21 28 -30 41 -58 21 -45 -5 3 -13 1 -16 -5 -8 -13 14
-42 25 -35 4 3 14 -3 21 -12 10 -12 10 -14 2 -9 -8 4 -13 2 -13 -4 0 -6 -4 -9
-8 -6 -4 2 -9 -7 -10 -22 -2 -28 -32 -68 -32 -43 0 7 5 21 10 31 7 13 7 21 0
25 -15 9 -12 27 3 19 7 -4 9 -3 4 2 -5 5 -13 10 -18 10 -19 3 -20 4 -12 17 11
18 12 36 2 43 -5 3 -6 11 -3 17 4 7 4 9 -1 5 -10 -10 -35 10 -35 28 0 8 5 14
11 14 5 0 7 -4 4 -10z m-5 -61 c-13 -23 -13 -29 1 -29 5 0 8 4 4 9 -3 5 -1 12
4 15 15 10 20 -19 5 -38 -12 -17 -14 -17 -38 9 -14 16 -26 23 -26 18 0 -6 7
-16 15 -23 12 -10 13 -16 4 -26 -19 -23 -28 -16 -27 22 1 29 6 38 32 49 20 8
25 14 14 14 -10 1 -18 8 -18 18 0 15 2 14 20 -2 15 -13 17 -22 10 -36z m23
-77 c-4 -10 -2 -13 5 -8 8 5 12 0 12 -13 0 -11 -5 -23 -10 -26 -8 -5 -7 -12 2
-23 11 -13 11 -15 -2 -8 -9 4 -8 1 3 -7 9 -8 17 -22 17 -32 0 -10 3 -15 8 -11
10 11 9 30 -2 38 -5 3 0 18 12 33 12 15 19 31 17 35 -10 16 13 20 25 5 13 -16
4 -39 -12 -29 -5 4 -4 -4 2 -17 10 -18 10 -24 1 -27 -7 -2 -17 -15 -22 -29 -7
-19 -13 -23 -31 -17 -20 6 -21 5 -9 -10 12 -14 12 -16 -3 -10 -15 6 -19 15
-13 32 1 4 6 6 10 4 5 -1 5 3 2 9 -5 8 -10 8 -18 0 -14 -14 -30 -14 -21 0 4 8
-1 9 -17 4 -20 -7 -21 -6 -8 7 8 8 21 18 29 21 8 4 2 5 -14 2 -26 -6 -28 -4
-24 19 3 15 1 26 -6 26 -6 1 -1 9 11 19 12 10 20 20 18 22 -2 2 7 5 20 5 17 1
22 -2 18 -14z m-13 -153 c0 -5 -9 -9 -20 -9 -19 0 -27 20 -13 33 7 8 33 -11
33 -24z"/>
<path d="M450 1867 c0 -16 21 -47 33 -47 8 0 9 3 1 8 -6 4 -16 16 -22 27 -6
11 -12 16 -12 12z"/>
<path d="M325 1889 c4 -35 11 -46 22 -35 4 4 1 11 -6 15 -9 6 -10 10 -2 12 7
3 9 12 6 22 -11 28 -24 19 -20 -14z"/>
<path d="M283 1871 c-1 -14 -3 -34 -3 -43 -1 -16 -18 -20 -30 -8 -3 3 -18 3
-35 -1 l-30 -7 33 -1 c19 -1 31 -5 27 -11 -3 -5 -1 -10 5 -10 7 0 10 -8 6 -17
-5 -16 -4 -16 7 0 32 49 32 49 35 22 1 -15 -2 -24 -8 -20 -6 3 -10 1 -10 -5 0
-7 6 -10 14 -7 7 3 20 0 27 -6 10 -10 11 -9 2 3 -13 19 -13 51 0 68 6 8 6 12
-2 12 -6 0 -11 -4 -11 -10 0 -5 -6 -7 -14 -4 -8 3 -12 12 -9 20 3 8 8 12 12
10 4 -3 8 6 9 18 1 12 -4 23 -11 23 -6 0 -13 -12 -14 -26z"/>
<path d="M371 1860 c-1 -14 6 -74 14 -135 8 -60 15 -115 15 -120 0 -6 -16 -17
-35 -24 -39 -14 -140 -109 -150 -142 -11 -34 1 -32 24 4 29 47 105 115 147
133 28 12 33 19 29 37 -2 12 -12 74 -20 137 -17 123 -23 150 -24 110z"/>
<path d="M645 1860 c3 -5 2 -10 -3 -10 -5 0 -12 -13 -14 -29 -4 -27 -2 -29 15
-19 16 8 17 12 6 19 -13 8 -5 13 14 10 4 -1 3 8 -3 19 -6 11 -13 20 -16 20 -3
0 -2 -4 1 -10z"/>
<path d="M335 1820 c-4 -12 -3 -26 2 -33 5 -7 8 -24 7 -40 -2 -15 1 -25 6 -22
10 6 10 64 -1 70 -4 3 -5 14 -2 25 7 26 -4 26 -12 0z"/>
<path d="M209 1740 c-15 -16 -15 -17 10 -17 14 0 21 2 14 4 -7 2 -9 11 -6 19
7 18 2 17 -18 -6z"/>
<path d="M293 1728 c20 -32 21 -39 6 -35 -6 1 -13 -6 -14 -16 -3 -18 -3 -18
16 -1 10 9 19 28 19 42 0 14 -3 22 -7 19 -3 -4 -13 -1 -22 6 -13 10 -13 7 2
-15z"/>
<path d="M251 1720 c0 -8 4 -24 9 -35 5 -13 9 -14 9 -5 0 8 -4 24 -9 35 -5 13
-9 14 -9 5z"/>
<path d="M349 1691 c6 -10 8 -21 5 -24 -3 -2 -6 -17 -7 -33 -1 -15 -8 -29 -15
-32 -9 -3 -11 5 -7 25 3 21 1 30 -9 30 -9 0 -12 -9 -9 -29 2 -15 0 -28 -6 -28
-20 0 -41 12 -35 21 3 5 0 9 -6 9 -6 0 -9 4 -6 9 4 5 -3 7 -14 4 -17 -4 -19
-2 -13 13 6 18 6 18 -10 2 -22 -21 -21 -23 4 -25 29 -3 34 -10 19 -28 -7 -9
-8 -15 -2 -15 6 0 13 6 15 13 4 7 6 6 6 -5 2 -31 -11 -48 -35 -48 -13 0 -24
-4 -24 -9 0 -4 12 -6 26 -3 21 4 25 2 20 -9 -4 -8 8 3 28 23 20 21 38 38 41
38 3 0 10 0 15 0 6 0 19 9 29 19 16 16 18 26 11 52 -5 17 -7 36 -4 40 3 5 -2
9 -11 9 -12 0 -14 -4 -6 -19z m-69 -121 c-17 -32 -29 -32 -17 -1 6 17 15 28
19 25 4 -3 4 -14 -2 -24z"/>
<path d="M198 1508 c8 -8 8 -17 1 -32 -8 -17 -6 -16 10 4 21 27 19 40 -7 40
-12 0 -13 -3 -4 -12z"/>
<path d="M882 2348 c-9 -9 -12 -105 -12 -369 0 -325 2 -359 18 -377 26 -31
566 -408 601 -420 42 -15 78 0 92 35 28 70 -16 517 -83 853 -34 174 -45 186
-226 229 -236 56 -366 73 -390 49z m178 -23 c126 -21 308 -64 342 -81 15 -8
35 -28 43 -44 19 -36 69 -297 90 -463 21 -172 23 -163 -22 -136 -88 52 -83 35
-83 284 0 217 -1 222 -25 272 -53 106 -191 153 -294 100 -79 -40 -85 -57 -91
-228 -5 -155 -12 -178 -50 -163 -8 3 -31 8 -50 11 l-35 5 3 221 c1 122 4 228
7 235 3 9 16 11 37 8 18 -3 76 -13 128 -21z m220 -77 c44 -12 71 -34 104 -83
26 -38 26 -38 26 -261 0 -147 4 -232 12 -248 6 -14 39 -43 73 -65 l62 -38 7
-58 c3 -32 5 -59 4 -61 -2 -1 -42 21 -88 49 l-85 53 -5 279 c-5 266 -6 282
-28 322 -34 65 -83 93 -159 93 -58 0 -67 -3 -99 -33 -34 -31 -37 -38 -43 -107
-3 -41 -6 -139 -6 -217 l0 -141 -40 24 c-22 14 -61 36 -87 51 -52 29 -56 34
-33 53 12 10 21 10 41 1 38 -17 72 -14 84 8 5 11 10 77 10 146 0 145 11 182
66 216 64 39 96 42 184 17z m-90 -63 c0 -14 -4 -25 -10 -25 -5 0 -10 11 -10
25 0 14 5 25 10 25 6 0 10 -11 10 -25z m50 0 c0 -14 -4 -25 -10 -25 -5 0 -10
11 -10 25 0 14 5 25 10 25 6 0 10 -11 10 -25z m-100 -10 c0 -14 -4 -25 -10
-25 -11 0 -14 33 -3 43 11 11 13 8 13 -18z m160 -16 c0 -10 -4 -19 -10 -19 -5
0 -10 12 -10 26 0 14 4 23 10 19 6 -3 10 -15 10 -26z m-30 -34 c16 -8 40 -30
54 -48 52 -68 56 -97 56 -393 0 -151 -3 -274 -7 -274 -4 0 -74 44 -155 98
l-148 97 0 215 c0 200 1 217 21 250 11 19 31 43 42 52 27 22 98 23 137 3z
m-215 -458 c1 -26 0 -47 -3 -47 -2 0 -42 25 -88 56 -84 55 -84 55 -84 99 l0
43 86 -52 86 -51 3 -48z m95 -133 c135 -89 262 -178 283 -197 21 -20 55 -44
77 -54 41 -19 50 -42 26 -62 -26 -22 -91 6 -214 91 -225 156 -409 287 -419
300 -6 7 -13 32 -17 56 -5 34 -4 42 6 36 7 -4 123 -81 258 -170z m345 -77 l70
-44 0 -54 c0 -72 -15 -73 -107 -11 l-73 49 3 61 c3 54 6 61 20 52 10 -5 49
-29 87 -53z"/>
<path d="M1152 2085 c-12 -9 -33 -35 -47 -59 -22 -38 -25 -54 -25 -150 l0
-106 55 -35 c30 -19 57 -35 60 -35 3 0 5 90 5 200 0 213 -1 217 -48 185z m32
-174 c-4 -94 -11 -171 -16 -171 -5 0 -22 7 -38 15 l-30 16 0 111 c0 95 3 115
21 144 20 32 59 68 66 60 2 -2 1 -81 -3 -175z"/>
<path d="M1231 1938 c1 -84 4 -177 7 -207 6 -50 11 -57 52 -87 25 -18 50 -33
55 -33 6 -1 10 61 10 167 0 182 -5 203 -70 281 -50 59 -55 47 -54 -121z m85
46 c24 -50 25 -59 22 -187 -2 -75 -6 -139 -10 -142 -4 -4 -22 1 -40 12 l-33
19 -3 194 -2 194 20 -19 c11 -10 32 -42 46 -71z"/>
<path d="M1080 1681 c0 -47 1 -49 55 -85 30 -20 57 -36 60 -36 3 0 5 23 5 50
0 50 0 50 -55 85 -30 19 -57 35 -60 35 -3 0 -5 -22 -5 -49z m100 -58 c0 -23
-4 -33 -12 -30 -8 2 -12 15 -10 31 4 27 -12 56 -29 56 -16 0 -9 -39 8 -49 10
-5 15 -12 11 -16 -3 -3 -15 0 -27 7 -15 9 -21 23 -21 51 l0 37 40 -26 c34 -23
40 -32 40 -61z"/>
<path d="M1230 1591 c0 -50 1 -51 53 -86 l52 -35 3 47 c4 51 -6 64 -78 106
l-30 18 0 -50z m100 -64 l0 -37 -27 17 c-52 32 -63 46 -63 79 l0 34 45 -28
c41 -24 45 -31 45 -65z"/>
<path d="M1270 1561 c0 -19 26 -48 36 -39 7 8 -14 58 -26 58 -5 0 -10 -8 -10
-19z"/>
<path d="M829 1810 c-2 -30 -2 -91 0 -136 l3 -81 -64 -49 c-34 -28 -92 -70
-128 -94 -219 -147 -421 -297 -431 -323 -22 -53 40 -113 220 -212 132 -73 201
-98 235 -86 13 6 27 15 31 20 9 15 281 15 290 0 27 -43 105 -24 268 67 172 95
236 155 223 208 -6 25 -110 103 -386 292 -251 172 -239 161 -241 219 -1 28 0
55 2 60 4 14 1 52 -9 115 l-9 55 -4 -55z m13 -92 c-9 -9 -12 -7 -12 12 0 19 3
21 12 12 9 -9 9 -15 0 -24z m58 -190 l60 -42 0 -108 c0 -116 -6 -127 -46 -83
-42 45 -103 45 -145 0 -43 -45 -49 -35 -49 83 l0 107 53 42 c28 23 56 42 60
42 4 1 35 -18 67 -41z m-200 -148 c0 -73 -3 -90 -15 -90 -10 0 -15 -10 -15
-29 0 -16 6 -31 15 -35 13 -4 15 -33 15 -175 0 -187 -4 -201 -61 -201 -59 0
-294 137 -368 214 -60 63 -53 71 262 292 89 62 163 114 165 114 1 0 2 -40 2
-90z m628 -152 c104 -77 121 -104 95 -148 -18 -31 -29 -40 -137 -114 -96 -65
-199 -116 -237 -116 -64 0 -69 13 -69 202 0 141 2 170 15 174 9 4 15 19 15 35
0 19 -5 29 -15 29 -12 0 -15 17 -15 91 l0 90 128 -87 c70 -49 169 -119 220
-156z m-425 56 c22 -22 32 -25 62 -20 36 7 44 -1 23 -22 -22 -22 -68 -14 -100
18 -16 17 -37 30 -47 30 -9 0 -30 -13 -46 -30 -31 -32 -80 -41 -103 -18 -21
21 -13 28 26 22 31 -5 41 -2 61 20 34 36 89 36 124 0z m-16 -44 c15 -16 38
-30 50 -30 23 0 23 -1 23 -150 l0 -150 -120 0 -120 0 0 150 0 150 23 0 c13 0
36 14 52 30 16 17 37 30 46 30 10 0 30 -13 46 -30z m81 -357 c3 -10 -27 -13
-127 -13 -113 0 -130 2 -125 15 5 13 26 15 127 13 85 -2 122 -7 125 -15z"/>
<path d="M791 1204 c-12 -15 -21 -32 -21 -39 0 -27 41 -65 70 -65 29 0 70 38
70 65 0 27 -41 65 -70 65 -19 0 -36 -9 -49 -26z m63 -31 c-7 -20 -17 -29 -37
-31 -26 -3 -28 -1 -25 25 2 17 12 32 28 40 33 16 47 2 34 -34z m36 -8 c0 -30
-42 -61 -67 -49 -16 7 -16 8 4 11 26 5 44 24 46 52 2 27 17 15 17 -14z"/>
<path d="M780 990 l0 -60 60 0 60 0 0 60 0 60 -60 0 -60 0 0 -60z m50 30 c0
-13 -7 -20 -20 -20 -19 0 -27 20 -13 33 13 14 33 6 33 -13z m58 -3 c3 -12 -3
-17 -21 -17 -20 0 -24 4 -20 20 7 25 36 23 41 -3z m-58 -57 c0 -13 -7 -20 -20
-20 -13 0 -20 7 -20 20 0 13 7 20 20 20 13 0 20 -7 20 -20z m60 0 c0 -14 -7
-20 -23 -20 -16 0 -23 6 -23 20 0 14 7 20 23 20 16 0 23 -6 23 -20z"/>
<path d="M788 821 c-24 -23 -23 -53 2 -74 22 -18 80 -24 80 -7 0 6 7 10 15 10
22 0 20 59 -2 76 -25 19 -75 16 -95 -5z m82 -11 c24 -24 26 -40 5 -40 -8 0
-15 -7 -15 -15 0 -21 -26 -19 -50 5 -24 24 -24 25 -2 49 22 25 38 25 62 1z"/>
</g>
</svg>
